<?xml version="1.0" encoding="UTF-8" standalone="no"?>
<!-- Created with Inkscape (http://www.inkscape.org/) -->

<svg
   xmlns:dc="http://purl.org/dc/elements/1.1/"
   xmlns:cc="http://creativecommons.org/ns#"
   xmlns:rdf="http://www.w3.org/1999/02/22-rdf-syntax-ns#"
   xmlns:svg="http://www.w3.org/2000/svg"
   xmlns="http://www.w3.org/2000/svg"
   xmlns:sodipodi="http://sodipodi.sourceforge.net/DTD/sodipodi-0.dtd"
   xmlns:inkscape="http://www.inkscape.org/namespaces/inkscape"
   version="1.0"
   width="279.11862"
   height="279.11862"
   id="svg3610"
   inkscape:version="0.48.5 r10040"
   sodipodi:docname="avatar.svg">
  <sodipodi:namedview
     pagecolor="#ffffff"
     bordercolor="#666666"
     borderopacity="1"
     objecttolerance="10"
     gridtolerance="10"
     guidetolerance="10"
     inkscape:pageopacity="0"
     inkscape:pageshadow="2"
     inkscape:window-width="640"
     inkscape:window-height="480"
     id="namedview10"
     showgrid="false"
     inkscape:zoom="0.23838384"
     inkscape:cx="124.49984"
     inkscape:cy="139.95277"
     inkscape:window-x="0"
     inkscape:window-y="0"
     inkscape:window-maximized="0"
     inkscape:current-layer="svg3610"
     fit-margin-top="0"
     fit-margin-left="0"
     fit-margin-right="0"
     fit-margin-bottom="0" />
  <title
     id="title3635">Person Outline</title>
  <defs
     id="defs3612" />
  <metadata
     id="metadata3615">
    <rdf:RDF>
      <cc:Work
         rdf:about="">
        <dc:format>image/svg+xml</dc:format>
        <dc:type
           rdf:resource="http://purl.org/dc/dcmitype/StillImage" />
        <dc:title>Person Outline</dc:title>
        <dc:contributor>
          <cc:Agent>
            <dc:title>Fabricatorz, Lu Fang, Jon Phillips</dc:title>
          </cc:Agent>
        </dc:contributor>
        <cc:license
           rdf:resource="http://creativecommons.org/licenses/publicdomain/" />
      </cc:Work>
      <cc:License
         rdf:about="http://creativecommons.org/licenses/publicdomain/">
        <cc:permits
           rdf:resource="http://creativecommons.org/ns#Reproduction" />
        <cc:permits
           rdf:resource="http://creativecommons.org/ns#Distribution" />
        <cc:permits
           rdf:resource="http://creativecommons.org/ns#DerivativeWorks" />
      </cc:License>
    </rdf:RDF>
  </metadata>
  <g
     id="g2987"
     transform="translate(-258.00017,-355.83415)">
    <g
       transform="translate(234.91525,394.32203)"
       id="layer1">
      <g
         id="g3765">
        <path
           inkscape:connector-curvature="0"
           style="fill:#2e3436;fill-opacity:1;fill-rule:evenodd;stroke:none"
           id="path3449"
           d="m 51.622768,238.22033 228.062492,0 c 2.03352,0 4.02247,-0.20386 5.9375,-0.59375 1.06748,-0.21733 2.04121,-0.63965 3.0625,-0.96875 -2.11989,-4.20951 -2.625,-7.5 -2.625,-7.5 0,0 0.64165,-2.517 3.15625,-6.90625 2.5045,-4.39432 -6.28125,-8.77187 -6.28125,-12.53125 0,-3.76948 -15.68995,-32.63224 -23.21875,-38.90625 -7.5289,-6.27399 -20.71875,-8.15625 -20.71875,-8.15625 0,0 -9.38195,-3.14167 -14.40625,-6.28125 -5.0142,-3.13452 -3.7786,-3.1153 4.375,-5.625 8.1588,-2.51461 5.03125,-6.28125 5.03125,-6.28125 l -11.9375,0 c -10.0384,0 -20.06975,-6.27641 -26.96875,-7.53125 -6.9041,-1.25473 -8.78125,-3.15625 -8.78125,-3.15625 l -2.5,-26.34375 c 0,0 2.5,-6.89202 2.5,-11.906255 0,-5.0242 2.5,-1.90625 2.5,-1.90625 l 5.03125,-5 c 0,0 4.38695,-5.038536 8.78125,-11.937496 4.3944,-6.90388 1.2545,-5.63195 -1.25,-10.65625 -2.5197,-5.01412 -1.25,-10.03125 -1.25,-10.03125 0,0 0.6346,-8.163555 0,-15.0625 -0.6248,-6.898847 -3.1489,-8.153872 -12.5625,-17.5625 -9.4085,-9.40348 -14.42075,-14.4234305 -26.96875,-20.0624995 -12.5531,-5.654176 -13.8125,-2.53125001 -13.8125,-2.53125001 l -8.78125,0.62500001 -6.90625,1.90625 c 0,0 -11.2934,3.7307 -17.5625,8.1249995 -6.274,4.389252 -14.418295,20.103457 -19.437495,34.53125 -5.0141,14.42776 1.875,21.9375 1.875,21.9375 l 4.406245,4.40625 0.625,4.375 0,8.812496 c 0,0 6.90165,15.677935 10.03125,18.187505 3.1395,2.51004 6.28125,-0.625 6.28125,-0.625 0,0 4.9994,8.13709 5.625,13.15625 0.6249,5.01925 3.15625,17.5625 3.15625,17.5625 0,0 -0.64685,1.27657 -4.40625,3.15625 -3.7644,1.8797 -15.0625,11.90625 -15.0625,11.90625 l -6.906245,8.15625 c 0,0 -13.7885,9.42293 -20.0625,12.5625 -6.2741,3.13958 -21.968747,17.5625 -21.968747,17.5625 l -6.0625,51.09375 z" />
        <rect
           style="color:#000000;fill:none;stroke:none;stroke-width:0.8813923;marker:none;visibility:visible;display:inline;overflow:visible;enable-background:accumulate"
           id="rect3760"
           y="-38.487885"
           x="23.084915"
           ry="0"
           rx="300"
           height="279.11862"
           width="279.11862" />
      </g>
    </g>
  </g>
</svg>
